STARTFONT 2.1
COMMENT $XConsortium: luRS24.bdf,v 1.7 94/04/02 16:00:17 gildea Exp $
COMMENT  (c) Copyright Bigelow & Holmes 1986, 1985. Lucida is a registered
COMMENT  trademark of Bigelow & Holmes. See LEGAL NOTICE file for terms 
COMMENT  of the license. 
COMMENT  
COMMENT  Translation to ISO8859-2 by Cub Soft;  Petr.Kolar@vslib.cz
COMMENT  
FONT -B&H-Lucida-Medium-R-Normal-Sans-24-240-75-75-P-136-ISO8859-2
SIZE 24 72 72
FONTBOUNDINGBOX 39 27 -15 -5
STARTPROPERTIES 20
COMMENT Begin LogicalFontDescription
FONTNAME_REGISTRY ""
FOUNDRY "B&H"
FAMILY_NAME "Lucida"
WEIGHT_NAME "Medium"
SLANT "R"
SETWIDTH_NAME "Normal"
ADD_STYLE_NAME "Sans"
PIXEL_SIZE 24
POINT_SIZE 240
RESOLUTION_X 75
RESOLUTION_Y 75
SPACING "P"
AVERAGE_WIDTH 136
CHARSET_REGISTRY "ISO8859"
CHARSET_ENCODING "2"
COMMENT END LogicalFontDescription
FONT_ASCENT 22
FONT_DESCENT 5
DEFAULT_CHAR 0
COPYRIGHT "Copyright Bigelow & Holmes 1986, 1985., Copyright 1996 Cub Soft"
FACE_NAME "Lucida Sans"
ENDPROPERTIES
CHARS 191
STARTCHAR space
ENCODING 32
SWIDTH 316 0
DWIDTH 8 0
BBX 1 1 0 0
BITMAP
00
ENDCHAR
STARTCHAR exclam
ENCODING 33
SWIDTH 205 0
DWIDTH 8 0
BBX 2 17 3 0
BITMAP
c0
c0
c0
c0
c0
c0
c0
c0
c0
c0
c0
c0
00
00
c0
c0
c0
ENDCHAR
STARTCHAR quotedbl
ENCODING 34
SWIDTH 373 0
DWIDTH 9 0
BBX 6 6 1 11
BITMAP
cc
cc
cc
cc
cc
cc
ENDCHAR
STARTCHAR numbersign
ENCODING 35
SWIDTH 633 0
DWIDTH 15 0
BBX 15 17 0 0
BITMAP
0318
0318
0330
0630
0630
7ffe
7ffe
0660
0c60
0c60
0cc0
fffc
fffc
18c0
1980
3980
3180
ENDCHAR
STARTCHAR dollar
ENCODING 36
SWIDTH 633 0
DWIDTH 15 0
BBX 10 21 2 -2
BITMAP
0c00
0c00
3f80
7fc0
ec00
cc00
cc00
ec00
7c00
3c00
1e00
0f80
0d80
0cc0
0cc0
0cc0
8dc0
ff80
7f00
0c00
0c00
ENDCHAR
STARTCHAR percent
ENCODING 37
SWIDTH 669 0
DWIDTH 16 0
BBX 17 17 0 0
BITMAP
3c0380
7e0700
e70e00
c30c00
c31800
e73000
7e7000
3ce000
01de00
03bf00
077380
066180
0c6180
1c6180
387380
703f00
e01e00
ENDCHAR
STARTCHAR ampersand
ENCODING 38
SWIDTH 697 0
DWIDTH 17 0
BBX 14 17 1 0
BITMAP
0780
0fc0
1cc0
1cc0
1cc0
1d80
0f80
3e00
761c
631c
e39c
e198
e1f8
f0f0
78e0
3ff0
1f1c
ENDCHAR
STARTCHAR apostrophe
ENCODING 39
SWIDTH 229 0
DWIDTH 5 0
BBX 3 6 1 11
BITMAP
e0
e0
e0
60
60
c0
ENDCHAR
STARTCHAR parenleft
ENCODING 40
SWIDTH 325 0
DWIDTH 8 0
BBX 6 21 1 -4
BITMAP
04
0c
18
38
30
70
60
e0
e0
e0
e0
e0
e0
e0
60
70
30
38
18
0c
04
ENDCHAR
STARTCHAR parenright
ENCODING 41
SWIDTH 325 0
DWIDTH 8 0
BBX 6 21 1 -4
BITMAP
80
c0
60
70
30
38
18
1c
1c
1c
1c
1c
1c
1c
18
38
30
70
60
c0
80
ENDCHAR
STARTCHAR asterisk
ENCODING 42
SWIDTH 482 0
DWIDTH 12 0
BBX 9 9 1 8
BITMAP
0800
0800
4880
eb80
3600
1400
3600
6200
2300
ENDCHAR
STARTCHAR plus
ENCODING 43
SWIDTH 633 0
DWIDTH 15 0
BBX 14 14 1 0
BITMAP
0300
0300
0300
0300
0300
0300
fffc
fffc
0300
0300
0300
0300
0300
0300
ENDCHAR
STARTCHAR comma
ENCODING 44
SWIDTH 316 0
DWIDTH 8 0
BBX 3 9 2 -5
BITMAP
e0
e0
e0
e0
60
60
60
c0
80
ENDCHAR
STARTCHAR minus
ENCODING 45
SWIDTH 633 0
DWIDTH 15 0
BBX 14 2 1 7
BITMAP
fffc
fffc
ENDCHAR
STARTCHAR period
ENCODING 46
SWIDTH 316 0
DWIDTH 8 0
BBX 3 3 2 0
BITMAP
e0
e0
e0
ENDCHAR
STARTCHAR slash
ENCODING 47
SWIDTH 494 0
DWIDTH 12 0
BBX 12 21 0 -4
BITMAP
0030
0060
0060
00c0
00c0
0180
0180
0380
0300
0700
0600
0e00
0c00
1c00
1800
1800
3000
3000
6000
6000
c000
ENDCHAR
STARTCHAR zero
ENCODING 48
SWIDTH 633 0
DWIDTH 15 0
BBX 12 17 2 0
BITMAP
0f00
3fc0
79e0
70e0
70e0
e070
e070
e070
e070
e070
e070
e070
70e0
70e0
79e0
3fc0
0f00
ENDCHAR
STARTCHAR one
ENCODING 49
SWIDTH 633 0
DWIDTH 15 0
BBX 6 17 3 0
BITMAP
fc
fc
1c
1c
1c
1c
1c
1c
1c
1c
1c
1c
1c
1c
1c
1c
1c
ENDCHAR
STARTCHAR two
ENCODING 50
SWIDTH 633 0
DWIDTH 15 0
BBX 11 17 2 0
BITMAP
3f00
ffc0
c1c0
00e0
00e0
00e0
00e0
01c0
0380
0700
0e00
1c00
3000
7000
e000
ffe0
ffe0
ENDCHAR
STARTCHAR three
ENCODING 51
SWIDTH 633 0
DWIDTH 15 0
BBX 11 17 2 0
BITMAP
7f00
ffc0
c1e0
00e0
00e0
00c0
0380
3e00
3f00
03c0
00e0
00e0
00e0
00e0
83c0
ff80
ff00
ENDCHAR
STARTCHAR four
ENCODING 52
SWIDTH 633 0
DWIDTH 15 0
BBX 12 17 1 0
BITMAP
01c0
03c0
03c0
07c0
0ec0
1cc0
18c0
30c0
70c0
e0c0
fff0
fff0
00c0
00c0
00c0
00c0
00c0
ENDCHAR
STARTCHAR five
ENCODING 53
SWIDTH 633 0
DWIDTH 15 0
BBX 9 17 3 0
BITMAP
ff80
ff80
c000
c000
c000
c000
f800
fe00
0f00
0380
0380
0380
0380
0380
8700
fe00
fc00
ENDCHAR
STARTCHAR six
ENCODING 54
SWIDTH 633 0
DWIDTH 15 0
BBX 12 17 2 0
BITMAP
0fc0
1fe0
3820
7000
7000
e000
e780
efe0
f8e0
e070
e070
e070
6070
7070
38e0
3fc0
0f80
ENDCHAR
STARTCHAR seven
ENCODING 55
SWIDTH 633 0
DWIDTH 15 0
BBX 11 17 3 0
BITMAP
ffe0
ffe0
00e0
00c0
01c0
0380
0300
0700
0600
0e00
1c00
1c00
3800
3800
3000
7000
7000
ENDCHAR
STARTCHAR eight
ENCODING 56
SWIDTH 633 0
DWIDTH 15 0
BBX 12 17 2 0
BITMAP
0f80
1fc0
38e0
3060
3060
3840
1cc0
0f00
1fc0
73e0
61f0
e070
e070
e070
f0e0
7fe0
1f80
ENDCHAR
STARTCHAR nine
ENCODING 57
SWIDTH 633 0
DWIDTH 15 0
BBX 12 17 2 0
BITMAP
1f00
3fc0
71e0
e0e0
e070
e070
e070
e070
70f0
7f70
1e70
0070
00e0
00e0
41c0
7f80
7e00
ENDCHAR
STARTCHAR colon
ENCODING 58
SWIDTH 316 0
DWIDTH 8 0
BBX 3 13 2 0
BITMAP
e0
e0
e0
00
00
00
00
00
00
00
e0
e0
e0
ENDCHAR
STARTCHAR semicolon
ENCODING 59
SWIDTH 316 0
DWIDTH 8 0
BBX 3 18 2 -5
BITMAP
e0
e0
e0
00
00
00
00
00
00
00
00
e0
e0
60
60
60
c0
80
ENDCHAR
STARTCHAR less
ENCODING 60
SWIDTH 633 0
DWIDTH 15 0
BBX 14 14 1 0
BITMAP
0004
001c
0078
01e0
0780
1e00
f800
7800
1e00
0780
01e0
0078
001c
0004
ENDCHAR
STARTCHAR equal
ENCODING 61
SWIDTH 633 0
DWIDTH 15 0
BBX 14 7 1 4
BITMAP
fffc
fffc
0000
0000
0000
fffc
fffc
ENDCHAR
STARTCHAR greater
ENCODING 62
SWIDTH 633 0
DWIDTH 15 0
BBX 14 14 1 0
BITMAP
8000
e000
7800
1e00
0780
01e0
0078
007c
01e0
0780
1e00
7800
e000
8000
ENDCHAR
STARTCHAR question
ENCODING 63
SWIDTH 422 0
DWIDTH 10 0
BBX 10 17 0 0
BITMAP
7e00
ff80
83c0
01c0
01c0
01c0
0380
0700
0e00
0c00
1c00
1c00
1c00
0000
1c00
1c00
1c00
ENDCHAR
STARTCHAR at
ENCODING 64
SWIDTH 858 0
DWIDTH 21 0
BBX 19 17 3 0
BITMAP
00fc00
03ff00
0f0380
1c00c0
387ce0
71f860
630860
c31860
c63060
c670c0
c659c0
c79f80
e30e00
700000
3c0800
1ff800
07e000
ENDCHAR
STARTCHAR A
ENCODING 65
SWIDTH 690 0
DWIDTH 17 0
BBX 16 17 0 0
BITMAP
01c0
03c0
03e0
07e0
06e0
06f0
0c70
0c78
1c38
1838
1ffc
3ffc
301e
700e
600e
600f
c007
ENDCHAR
STARTCHAR B
ENCODING 66
SWIDTH 575 0
DWIDTH 14 0
BBX 11 17 2 0
BITMAP
ff00
ff80
e3c0
e1c0
e1c0
e1c0
e380
ff00
fe00
e380
e1c0
e0e0
e0e0
e0e0
e1e0
ffc0
ff00
ENDCHAR
STARTCHAR C
ENCODING 67
SWIDTH 692 0
DWIDTH 17 0
BBX 14 17 1 0
BITMAP
07f8
1ffc
3c0c
7800
7000
f000
e000
e000
e000
e000
e000
e000
7000
7804
3c1c
1ffc
07f0
ENDCHAR
STARTCHAR D
ENCODING 68
SWIDTH 749 0
DWIDTH 18 0
BBX 15 17 2 0
BITMAP
ffc0
fff0
e078
e03c
e01c
e00e
e00e
e00e
e00e
e00e
e00e
e00e
e01c
e01c
e078
fff0
ff80
ENDCHAR
STARTCHAR E
ENCODING 69
SWIDTH 542 0
DWIDTH 13 0
BBX 11 17 2 0
BITMAP
ffc0
ffc0
e000
e000
e000
e000
e000
ff80
ff80
e000
e000
e000
e000
e000
e000
ffe0
ffe0
ENDCHAR
STARTCHAR F
ENCODING 70
SWIDTH 536 0
DWIDTH 13 0
BBX 10 17 2 0
BITMAP
ffc0
ffc0
e000
e000
e000
e000
e000
e000
ff80
ff80
e000
e000
e000
e000
e000
e000
e000
ENDCHAR
STARTCHAR G
ENCODING 71
SWIDTH 723 0
DWIDTH 17 0
BBX 14 17 1 0
BITMAP
07f8
1ffc
3c0c
7800
7000
f000
e000
e000
e000
e01c
e01c
e01c
701c
781c
3c1c
1ffc
07f0
ENDCHAR
STARTCHAR H
ENCODING 72
SWIDTH 735 0
DWIDTH 18 0
BBX 13 17 2 0
BITMAP
e038
e038
e038
e038
e038
e038
e038
fff8
fff8
e038
e038
e038
e038
e038
e038
e038
e038
ENDCHAR
STARTCHAR I
ENCODING 73
SWIDTH 288 0
DWIDTH 7 0
BBX 3 17 2 0
BITMAP
e0
e0
e0
e0
e0
e0
e0
e0
e0
e0
e0
e0
e0
e0
e0
e0
e0
ENDCHAR
STARTCHAR J
ENCODING 74
SWIDTH 311 0
DWIDTH 7 0
BBX 8 21 -1 -4
BITMAP
07
07
07
07
07
07
07
07
07
07
07
07
07
07
07
07
07
07
0e
fe
f8
ENDCHAR
STARTCHAR K
ENCODING 75
SWIDTH 653 0
DWIDTH 16 0
BBX 14 17 2 0
BITMAP
e070
e0e0
e0c0
e180
e300
e700
ee00
ec00
fc00
fe00
ef00
e780
e3c0
e1e0
e0e0
e0f0
e07c
ENDCHAR
STARTCHAR L
ENCODING 76
SWIDTH 533 0
DWIDTH 13 0
BBX 11 17 2 0
BITMAP
e000
e000
e000
e000
e000
e000
e000
e000
e000
e000
e000
e000
e000
e000
e000
ffe0
ffe0
ENDCHAR
STARTCHAR M
ENCODING 77
SWIDTH 861 0
DWIDTH 21 0
BBX 16 17 2 0
BITMAP
f00f
f00f
f80f
f81f
f81f
dc3f
dc37
dc37
ce77
ce67
ce67
c7c7
c7c7
c7c7
c387
c387
c007
ENDCHAR
STARTCHAR N
ENCODING 78
SWIDTH 741 0
DWIDTH 18 0
BBX 13 17 2 0
BITMAP
e018
f018
f018
f818
fc18
dc18
de18
cf18
c718
c798
c3d8
c1d8
c1f8
c0f8
c078
c078
c038
ENDCHAR
STARTCHAR O
ENCODING 79
SWIDTH 777 0
DWIDTH 19 0
BBX 16 17 1 0
BITMAP
07e0
1ff8
3c3c
781e
700e
e007
e007
e007
e007
e007
e007
e007
700e
781e
3c3c
1ff8
07e0
ENDCHAR
STARTCHAR P
ENCODING 80
SWIDTH 553 0
DWIDTH 13 0
BBX 11 17 2 0
BITMAP
ff80
ffc0
e1e0
e0e0
e0e0
e0e0
e1e0
e3c0
ff80
ff00
e000
e000
e000
e000
e000
e000
e000
ENDCHAR
STARTCHAR Q
ENCODING 81
SWIDTH 777 0
DWIDTH 19 0
BBX 18 21 1 -4
BITMAP
07e000
1ff800
3c3c00
781e00
700e00
e00700
e00700
e00700
e00700
e00700
e00700
e00700
700e00
781e00
3c3c00
1ff800
07e000
003c00
000fc0
000780
000180
ENDCHAR
STARTCHAR R
ENCODING 82
SWIDTH 633 0
DWIDTH 15 0
BBX 13 17 3 0
BITMAP
ff00
ff80
e3c0
e1c0
e1c0
e1c0
e380
e780
fe00
fe00
e700
e780
e380
e3c0
e1e0
e0f0
e0f8
ENDCHAR
STARTCHAR S
ENCODING 83
SWIDTH 539 0
DWIDTH 13 0
BBX 10 17 1 0
BITMAP
3f00
7f80
f080
e000
e000
f000
7800
7e00
3f00
0f80
03c0
01c0
01c0
01c0
8380
ff80
7e00
ENDCHAR
STARTCHAR T
ENCODING 84
SWIDTH 633 0
DWIDTH 15 0
BBX 15 17 0 0
BITMAP
fffe
fffe
0380
0380
0380
0380
0380
0380
0380
0380
0380
0380
0380
0380
0380
0380
0380
ENDCHAR
STARTCHAR U
ENCODING 85
SWIDTH 693 0
DWIDTH 17 0
BBX 12 17 2 0
BITMAP
e030
e030
e030
e030
e030
e030
e030
e030
e030
e030
e030
e030
e030
f070
7060
7fe0
1f80
ENDCHAR
STARTCHAR V
ENCODING 86
SWIDTH 654 0
DWIDTH 16 0
BBX 15 17 1 0
BITMAP
e006
e00c
700c
700c
7018
3818
3838
3c30
1c30
1c60
0e60
0e60
0fc0
07c0
07c0
0780
0380
ENDCHAR
STARTCHAR W
ENCODING 87
SWIDTH 855 0
DWIDTH 21 0
BBX 20 17 0 0
BITMAP
e07030
e07030
e0f060
70f060
70f860
70f8e0
71b8c0
39b8c0
399cc0
399d80
3b1d80
1f1d80
1f1f80
1f0f00
1f0f00
0e0f00
0e0e00
ENDCHAR
STARTCHAR X
ENCODING 88
SWIDTH 626 0
DWIDTH 15 0
BBX 14 17 0 0
BITMAP
f01c
7038
3830
3c70
1ce0
1ec0
0fc0
0780
0780
07c0
0fc0
0de0
18f0
3870
3078
6038
e03c
ENDCHAR
STARTCHAR Y
ENCODING 89
SWIDTH 623 0
DWIDTH 15 0
BBX 15 17 0 0
BITMAP
e00e
700c
7818
3838
3c30
1e70
0e60
0fc0
07c0
0780
0380
0380
0380
0380
0380
0380
0380
ENDCHAR
STARTCHAR Z
ENCODING 90
SWIDTH 605 0
DWIDTH 14 0
BBX 12 17 1 0
BITMAP
7ff0
7ff0
00f0
00e0
01e0
03c0
0380
0700
0f00
1e00
1c00
3c00
7800
7000
f000
fff0
fff0
ENDCHAR
STARTCHAR bracketleft
ENCODING 91
SWIDTH 325 0
DWIDTH 8 0
BBX 5 21 2 -4
BITMAP
f8
f8
c0
c0
c0
c0
c0
c0
c0
c0
c0
c0
c0
c0
c0
c0
c0
c0
c0
f8
f8
ENDCHAR
STARTCHAR backslash
ENCODING 92
SWIDTH 494 0
DWIDTH 12 0
BBX 12 21 0 -4
BITMAP
c000
6000
6000
3000
3000
1800
1800
1c00
0c00
0e00
0600
0700
0300
0380
0180
0180
00c0
00c0
0060
0060
0030
ENDCHAR
STARTCHAR bracketright
ENCODING 93
SWIDTH 325 0
DWIDTH 8 0
BBX 5 21 1 -4
BITMAP
f8
f8
18
18
18
18
18
18
18
18
18
18
18
18
18
18
18
18
18
f8
f8
ENDCHAR
STARTCHAR asciicircum
ENCODING 94
SWIDTH 633 0
DWIDTH 15 0
BBX 14 14 1 3
BITMAP
0100
0300
0300
0780
0780
0cc0
0cc0
1860
1860
3030
3030
6018
6018
c00c
ENDCHAR
STARTCHAR underscore
ENCODING 95
SWIDTH 500 0
DWIDTH 12 0
BBX 10 2 1 -3
BITMAP
ffc0
ffc0
ENDCHAR
STARTCHAR grave
ENCODING 96
SWIDTH 614 0
DWIDTH 15 0
BBX 5 3 4 14
BITMAP
e0
30
18
ENDCHAR
STARTCHAR a
ENCODING 97
SWIDTH 552 0
DWIDTH 13 0
BBX 12 13 1 0
BITMAP
1f80
7fc0
41c0
01c0
01c0
1fc0
7fc0
f1c0
e1c0
e1c0
e3c0
7ef0
3c70
ENDCHAR
STARTCHAR b
ENCODING 98
SWIDTH 630 0
DWIDTH 15 0
BBX 12 17 2 0
BITMAP
e000
e000
e000
e000
e780
efe0
f8e0
e0f0
e070
e070
e070
e070
e070
e0e0
f1e0
ffc0
cf80
ENDCHAR
STARTCHAR c
ENCODING 99
SWIDTH 518 0
DWIDTH 12 0
BBX 10 13 1 0
BITMAP
0fc0
3fc0
7840
7000
e000
e000
e000
e000
e000
7000
7840
3fc0
0f80
ENDCHAR
STARTCHAR d
ENCODING 100
SWIDTH 630 0
DWIDTH 15 0
BBX 12 17 1 0
BITMAP
0070
0070
0070
0070
1e70
3ff0
78f0
7070
e070
e070
e070
e070
e070
f070
71f0
7f70
1e70
ENDCHAR
STARTCHAR e
ENCODING 101
SWIDTH 557 0
DWIDTH 13 0
BBX 11 13 1 0
BITMAP
1f00
3f80
71c0
60e0
e0e0
ffe0
ffe0
e000
e000
7000
7820
3fe0
0fc0
ENDCHAR
STARTCHAR f
ENCODING 102
SWIDTH 367 0
DWIDTH 9 0
BBX 9 19 1 0
BITMAP
0f80
1f80
3800
3800
3800
3800
ff00
ff00
3800
3800
3800
3800
3800
3800
3800
3800
3800
3800
3800
ENDCHAR
STARTCHAR g
ENCODING 103
SWIDTH 623 0
DWIDTH 15 0
BBX 12 18 1 -5
BITMAP
1e70
3ff0
78f0
7070
e070
e070
e070
e070
e070
e070
71f0
7f70
1e70
0070
0060
40e0
7fc0
3f80
ENDCHAR
STARTCHAR h
ENCODING 104
SWIDTH 620 0
DWIDTH 15 0
BBX 10 17 3 0
BITMAP
e000
e000
e000
e000
e700
ef80
f1c0
f1c0
e1c0
e1c0
e1c0
e1c0
e1c0
e1c0
e1c0
e1c0
e1c0
ENDCHAR
STARTCHAR i
ENCODING 105
SWIDTH 289 0
DWIDTH 7 0
BBX 3 17 2 0
BITMAP
e0
e0
e0
00
e0
e0
e0
e0
e0
e0
e0
e0
e0
e0
e0
e0
e0
ENDCHAR
STARTCHAR j
ENCODING 106
SWIDTH 304 0
DWIDTH 7 0
BBX 7 22 -1 -5
BITMAP
0e
0e
0e
00
0e
0e
0e
0e
0e
0e
0e
0e
0e
0e
0e
0e
0e
0e
0e
8e
fc
f8
ENDCHAR
STARTCHAR k
ENCODING 107
SWIDTH 585 0
DWIDTH 14 0
BBX 12 17 2 0
BITMAP
e000
e000
e000
e000
e0e0
e1c0
e380
e700
e600
ec00
fe00
ef00
ef80
e780
e3c0
e1e0
e0f0
ENDCHAR
STARTCHAR l
ENCODING 108
SWIDTH 289 0
DWIDTH 7 0
BBX 3 17 2 0
BITMAP
e0
e0
e0
e0
e0
e0
e0
e0
e0
e0
e0
e0
e0
e0
e0
e0
e0
ENDCHAR
STARTCHAR m
ENCODING 109
SWIDTH 934 0
DWIDTH 22 0
BBX 17 13 3 0
BITMAP
e78e00
efdf00
f1e380
f1e380
e1c380
e1c380
e1c380
e1c380
e1c380
e1c380
e1c380
e1c380
e1c380
ENDCHAR
STARTCHAR n
ENCODING 110
SWIDTH 620 0
DWIDTH 15 0
BBX 10 13 3 0
BITMAP
e700
ef80
f1c0
f1c0
e1c0
e1c0
e1c0
e1c0
e1c0
e1c0
e1c0
e1c0
e1c0
ENDCHAR
STARTCHAR o
ENCODING 111
SWIDTH 614 0
DWIDTH 15 0
BBX 12 13 1 0
BITMAP
1f80
3fc0
79e0
70e0
e070
e070
e070
e070
e070
70e0
79e0
3fc0
1f80
ENDCHAR
STARTCHAR p
ENCODING 112
SWIDTH 630 0
DWIDTH 15 0
BBX 12 18 2 -5
BITMAP
e780
efe0
f8e0
e0f0
e070
e070
e070
e070
e070
e0e0
f1e0
ffc0
e780
e000
e000
e000
e000
e000
ENDCHAR
STARTCHAR q
ENCODING 113
SWIDTH 630 0
DWIDTH 15 0
BBX 12 18 1 -5
BITMAP
1e70
3ff0
78f0
7070
e070
e070
e070
e070
e070
f070
71f0
7f70
1e70
0070
0070
0070
0070
0070
ENDCHAR
STARTCHAR r
ENCODING 114
SWIDTH 409 0
DWIDTH 10 0
BBX 8 13 2 0
BITMAP
e7
ef
f8
f0
e0
e0
e0
e0
e0
e0
e0
e0
e0
ENDCHAR
STARTCHAR s
ENCODING 115
SWIDTH 510 0
DWIDTH 12 0
BBX 9 13 2 0
BITMAP
3f00
7f00
e100
e000
f000
fe00
7f00
1f80
0380
0380
8780
ff00
7e00
ENDCHAR
STARTCHAR t
ENCODING 116
SWIDTH 374 0
DWIDTH 9 0
BBX 8 15 0 0
BITMAP
38
38
ff
ff
38
38
38
38
38
38
38
38
38
1f
0f
ENDCHAR
STARTCHAR u
ENCODING 117
SWIDTH 620 0
DWIDTH 15 0
BBX 10 13 2 0
BITMAP
e1c0
e1c0
e1c0
e1c0
e1c0
e1c0
e1c0
e1c0
e1c0
e3c0
e3c0
7dc0
39c0
ENDCHAR
STARTCHAR v
ENCODING 118
SWIDTH 572 0
DWIDTH 12 0
BBX 12 13 0 0
BITMAP
e030
e060
f060
70e0
70c0
38c0
3980
3980
1d80
1f00
1f00
0f00
0e00
ENDCHAR
STARTCHAR w
ENCODING 119
SWIDTH 840 0
DWIDTH 18 0
BBX 18 13 0 0
BITMAP
c0c0c0
c1e1c0
61e180
61e180
61e380
333300
333300
333300
3e3600
1e1e00
1e1e00
1e1c00
1c1c00
ENDCHAR
STARTCHAR x
ENCODING 120
SWIDTH 613 0
DWIDTH 15 0
BBX 13 13 1 0
BITMAP
e038
7070
38e0
1cc0
0dc0
0780
0700
0f80
1d80
18c0
30e0
7070
e038
ENDCHAR
STARTCHAR y
ENCODING 121
SWIDTH 568 0
DWIDTH 13 0
BBX 12 18 0 -5
BITMAP
e030
e060
7060
7060
70c0
38c0
39c0
3d80
1d80
1f00
1f00
0f00
0e00
0600
0e00
0c00
1c00
1800
ENDCHAR
STARTCHAR z
ENCODING 122
SWIDTH 573 0
DWIDTH 14 0
BBX 11 13 1 0
BITMAP
ffe0
ffe0
00c0
0180
0300
0700
0e00
1c00
3800
3000
6000
ffe0
ffe0
ENDCHAR
STARTCHAR braceleft
ENCODING 123
SWIDTH 325 0
DWIDTH 8 0
BBX 6 21 0 -4
BITMAP
0c
1c
30
30
30
30
30
30
30
20
c0
e0
30
30
30
30
30
30
30
1c
0c
ENDCHAR
STARTCHAR bar
ENCODING 124
SWIDTH 265 0
DWIDTH 6 0
BBX 2 21 2 -4
BITMAP
c0
c0
c0
c0
c0
c0
c0
c0
c0
c0
c0
c0
c0
c0
c0
c0
c0
c0
c0
c0
c0
ENDCHAR
STARTCHAR braceright
ENCODING 125
SWIDTH 325 0
DWIDTH 8 0
BBX 6 21 2 -4
BITMAP
c0
e0
30
30
30
30
30
30
30
1c
0c
10
30
30
30
30
30
30
30
e0
c0
ENDCHAR
STARTCHAR asciitilde
ENCODING 126
SWIDTH 633 0
DWIDTH 15 0
BBX 14 6 1 4
BITMAP
380c
7e0c
670c
c398
c1f8
c070
ENDCHAR
STARTCHAR nobreakspace
ENCODING 160
SWIDTH 316 0
DWIDTH 8 0
BBX 1 1 0 0
BITMAP
00
ENDCHAR
STARTCHAR Aogonek
ENCODING 161
SWIDTH 690 0
DWIDTH 17 0
BBX 16 20 0 -3
BITMAP
01c0
03c0
03e0
07e0
06e0
06f0
0c70
0c78
1c38
1838
1ffc
3ffc
301e
700e
600e
600f
c007
0180
0300
03c0
ENDCHAR
STARTCHAR breve
ENCODING 162
SWIDTH 614 0
DWIDTH 15 0
BBX 8 3 3 14
BITMAP
c3
7e
3c
ENDCHAR
STARTCHAR Lstroke
ENCODING 163
SWIDTH 533 0
DWIDTH 13 0
BBX 14 17 0 0
BITMAP
1c00
1c00
1c00
1c00
1c00
1c80
1f80
1f00
7c00
fc00
9c00
1c00
1c00
1c00
1c00
1ffc
1ffc
ENDCHAR
STARTCHAR currency
ENCODING 164
SWIDTH 633 0
DWIDTH 15 0
BBX 14 15 1 1
BITMAP
c00c
e01c
77b8
3ff0
1860
3030
3030
3030
3030
3030
1860
3ff0
77b8
e01c
c00c
ENDCHAR
STARTCHAR Lcaron
ENCODING 165
SWIDTH 533 0
DWIDTH 13 0
BBX 11 19 2 0
BITMAP
0e00
0e00
ee00
e600
e600
ec00
e000
e000
e000
e000
e000
e000
e000
e000
e000
e000
e000
ffe0
ffe0
ENDCHAR
STARTCHAR Sacute
ENCODING 166
SWIDTH 539 0
DWIDTH 13 0
BBX 10 21 1 0
BITMAP
0380
0600
0c00
0000
3f00
7f80
f080
e000
e000
f000
7800
7e00
3f00
0f80
03c0
01c0
01c0
01c0
8380
ff80
7e00
ENDCHAR
STARTCHAR section
ENCODING 167
SWIDTH 633 0
DWIDTH 15 0
BBX 10 22 3 -5
BITMAP
1f80
7f80
e080
c000
c000
e000
7c00
7f00
5f80
c7c0
c1c0
e0c0
f8c0
7f80
3f00
0f80
01c0
00c0
00c0
c1c0
ff80
7f00
ENDCHAR
STARTCHAR diaeresis
ENCODING 168
SWIDTH 614 0
DWIDTH 15 0
BBX 7 2 4 15
BITMAP
c6
c6
ENDCHAR
STARTCHAR Scaron
ENCODING 169
SWIDTH 539 0
DWIDTH 13 0
BBX 10 21 1 0
BITMAP
7380
3f00
1e00
0000
3f00
7f80
f080
e000
e000
f000
7800
7e00
3f00
0f80
03c0
01c0
01c0
01c0
8380
ff80
7e00
ENDCHAR
STARTCHAR Scedilla
ENCODING 170
SWIDTH 539 0
DWIDTH 13 0
BBX 10 23 1 -6
BITMAP
3f00
7f80
f080
e000
e000
f000
7800
7e00
3f00
0f80
03c0
01c0
01c0
01c0
8380
ff80
7e00
0c00
0800
0e00
0600
0600
1c00
ENDCHAR
STARTCHAR Tcaron
ENCODING 171
SWIDTH 633 0
DWIDTH 15 0
BBX 15 21 0 0
BITMAP
0e70
07e0
03c0
0000
fffe
fffe
0380
0380
0380
0380
0380
0380
0380
0380
0380
0380
0380
0380
0380
0380
0380
ENDCHAR
STARTCHAR Zacute
ENCODING 172
SWIDTH 605 0
DWIDTH 14 0
BBX 12 21 1 0
BITMAP
00e0
0180
0300
0000
7ff0
7ff0
00f0
00e0
01e0
03c0
0380
0700
0f00
1e00
1c00
3c00
7800
7000
f000
fff0
fff0
ENDCHAR
STARTCHAR hyphen
ENCODING 173
SWIDTH 325 0
DWIDTH 8 0
BBX 5 2 1 7
BITMAP
f8
f8
ENDCHAR
STARTCHAR Zcaron
ENCODING 174
SWIDTH 605 0
DWIDTH 14 0
BBX 12 21 1 0
BITMAP
1ce0
0fc0
0780
0000
7ff0
7ff0
00f0
00e0
01e0
03c0
0380
0700
0f00
1e00
1c00
3c00
7800
7000
f000
fff0
fff0
ENDCHAR
STARTCHAR Zabovedot
ENCODING 175
SWIDTH 605 0
DWIDTH 14 0
BBX 12 21 1 0
BITMAP
0300
0300
0300
0000
7ff0
7ff0
00f0
00e0
01e0
03c0
0380
0700
0f00
1e00
1c00
3c00
7800
7000
f000
fff0
fff0
ENDCHAR
STARTCHAR degree
ENCODING 176
SWIDTH 277 0
DWIDTH 7 0
BBX 4 4 1 13
BITMAP
60
90
90
60
ENDCHAR
STARTCHAR aogonek
ENCODING 177
SWIDTH 552 0
DWIDTH 13 0
BBX 12 16 1 -3
BITMAP
1f80
7fc0
41c0
01c0
01c0
1fc0
7fc0
f1c0
e1c0
e1c0
e3c0
7ef0
3c70
0600
0c00
0f00
ENDCHAR
STARTCHAR ogonek
ENCODING 178
SWIDTH 614 0
DWIDTH 15 0
BBX 4 3 6 -4
BITMAP
60
c0
f0
ENDCHAR
STARTCHAR lstroke
ENCODING 179
SWIDTH 289 0
DWIDTH 7 0
BBX 9 17 0 0
BITMAP
1c00
1c00
1c00
1c00
1c80
1f80
1f00
1c00
fc00
9c00
1c00
1c00
1c00
1c00
1c00
1c00
1c00
ENDCHAR
STARTCHAR acute
ENCODING 180
SWIDTH 614 0
DWIDTH 15 0
BBX 5 3 5 14
BITMAP
38
60
c0
ENDCHAR
STARTCHAR lcaron
ENCODING 181
SWIDTH 458 0
DWIDTH 11 0
BBX 7 19 2 0
BITMAP
0e
0e
ee
e6
e6
ec
e0
e0
e0
e0
e0
e0
e0
e0
e0
e0
e0
e0
e0
ENDCHAR
STARTCHAR sacute
ENCODING 182
SWIDTH 510 0
DWIDTH 12 0
BBX 9 17 2 0
BITMAP
0700
0c00
1800
0000
3f00
7f00
e100
e000
f000
fe00
7f00
1f80
0380
0380
8780
ff00
7e00
ENDCHAR
STARTCHAR caron
ENCODING 183
SWIDTH 614 0
DWIDTH 15 0
BBX 8 3 3 14
BITMAP
e7
7e
3c
ENDCHAR
STARTCHAR cedilla
ENCODING 184
SWIDTH 614 0
DWIDTH 15 0
BBX 4 6 6 -5
BITMAP
60
40
70
30
30
e0
ENDCHAR
STARTCHAR scaron
ENCODING 185
SWIDTH 510 0
DWIDTH 12 0
BBX 9 17 2 0
BITMAP
e700
7e00
3c00
0000
3f00
7f00
e100
e000
f000
fe00
7f00
1f80
0380
0380
8780
ff00
7e00
ENDCHAR
STARTCHAR scedilla
ENCODING 186
SWIDTH 510 0
DWIDTH 12 0
BBX 9 19 2 -6
BITMAP
3f00
7f00
e100
e000
f000
fe00
7f00
1f80
0380
0380
8780
ff00
7e00
0c00
0800
0e00
0600
0600
1c00
ENDCHAR
STARTCHAR tcaron
ENCODING 187
SWIDTH 416 0
DWIDTH 10 0
BBX 9 20 0 0
BITMAP
0380
0380
0380
0180
0180
3b00
3800
ff00
ff00
3800
3800
3800
3800
3800
3800
3800
3800
3800
1f00
0f00
ENDCHAR
STARTCHAR zacute
ENCODING 188
SWIDTH 573 0
DWIDTH 14 0
BBX 11 17 1 0
BITMAP
01c0
0300
0600
0000
ffe0
ffe0
00c0
0180
0300
0700
0e00
1c00
3800
3000
6000
ffe0
ffe0
ENDCHAR
STARTCHAR doubleacute
ENCODING 189
SWIDTH 614 0
DWIDTH 15 0
BBX 7 3 5 14
BITMAP
36
6c
d8
ENDCHAR
STARTCHAR zcaron
ENCODING 190
SWIDTH 573 0
DWIDTH 14 0
BBX 11 17 1 0
BITMAP
39c0
1f80
0f00
0000
ffe0
ffe0
00c0
0180
0300
0700
0e00
1c00
3800
3000
6000
ffe0
ffe0
ENDCHAR
STARTCHAR zabovedot
ENCODING 191
SWIDTH 573 0
DWIDTH 14 0
BBX 11 17 1 0
BITMAP
0600
0600
0600
0000
ffe0
ffe0
00c0
0180
0300
0700
0e00
1c00
3800
3000
6000
ffe0
ffe0
ENDCHAR
STARTCHAR Racute
ENCODING 192
SWIDTH 633 0
DWIDTH 15 0
BBX 13 21 3 0
BITMAP
0380
0600
0c00
0000
ff00
ff80
e3c0
e1c0
e1c0
e1c0
e380
e780
fe00
fe00
e700
e780
e380
e3c0
e1e0
e0f0
e0f8
ENDCHAR
STARTCHAR Aacute
ENCODING 193
SWIDTH 690 0
DWIDTH 17 0
BBX 16 21 0 0
BITMAP
00e0
0180
0300
0000
01c0
03c0
03e0
07e0
06e0
06f0
0c70
0c78
1c38
1838
1ffc
3ffc
301e
700e
600e
600f
c007
ENDCHAR
STARTCHAR Acircumflex
ENCODING 194
SWIDTH 690 0
DWIDTH 17 0
BBX 16 21 0 0
BITMAP
03c0
07e0
0e70
0000
01c0
03c0
03e0
07e0
06e0
06f0
0c70
0c78
1c38
1838
1ffc
3ffc
301e
700e
600e
600f
c007
ENDCHAR
STARTCHAR Abreve
ENCODING 195
SWIDTH 690 0
DWIDTH 17 0
BBX 16 21 0 0
BITMAP
0618
03f0
01e0
0000
01c0
03c0
03e0
07e0
06e0
06f0
0c70
0c78
1c38
1838
1ffc
3ffc
301e
700e
600e
600f
c007
ENDCHAR
STARTCHAR Adiaeresis
ENCODING 196
SWIDTH 690 0
DWIDTH 17 0
BBX 16 20 0 0
BITMAP
0630
0630
0000
01c0
03c0
03e0
07e0
06e0
06f0
0c70
0c78
1c38
1838
1ffc
3ffc
301e
700e
600e
600f
c007
ENDCHAR
STARTCHAR Lacute
ENCODING 197
SWIDTH 533 0
DWIDTH 13 0
BBX 11 21 2 0
BITMAP
1c00
3000
6000
0000
e000
e000
e000
e000
e000
e000
e000
e000
e000
e000
e000
e000
e000
e000
e000
ffe0
ffe0
ENDCHAR
STARTCHAR Cacute
ENCODING 198
SWIDTH 692 0
DWIDTH 17 0
BBX 14 21 1 0
BITMAP
0070
00c0
0180
0000
07f8
1ffc
3c0c
7800
7000
f000
e000
e000
e000
e000
e000
e000
7000
7804
3c1c
1ffc
07f0
ENDCHAR
STARTCHAR Ccedilla
ENCODING 199
SWIDTH 692 0
DWIDTH 17 0
BBX 14 22 1 -5
BITMAP
07f8
1ffc
3c0c
7800
7000
f000
e000
e000
e000
e000
e000
e000
7000
7804
3c1c
1ffc
07f0
0200
0380
0180
0180
0700
ENDCHAR
STARTCHAR Ccaron
ENCODING 200
SWIDTH 692 0
DWIDTH 17 0
BBX 14 21 1 0
BITMAP
0e70
07e0
03c0
0000
07f8
1ffc
3c0c
7800
7000
f000
e000
e000
e000
e000
e000
e000
7000
7804
3c1c
1ffc
07f0
ENDCHAR
STARTCHAR Eacute
ENCODING 201
SWIDTH 542 0
DWIDTH 13 0
BBX 11 21 2 0
BITMAP
0700
0c00
1800
0000
ffc0
ffc0
e000
e000
e000
e000
e000
ff80
ff80
e000
e000
e000
e000
e000
e000
ffe0
ffe0
ENDCHAR
STARTCHAR Eogonek
ENCODING 202
SWIDTH 542 0
DWIDTH 13 0
BBX 11 20 2 -3
BITMAP
ffc0
ffc0
e000
e000
e000
e000
e000
ff80
ff80
e000
e000
e000
e000
e000
e000
ffe0
ffe0
0600
0c00
0f00
ENDCHAR
STARTCHAR Ediaeresis
ENCODING 203
SWIDTH 542 0
DWIDTH 13 0
BBX 11 20 2 0
BITMAP
6300
6300
0000
ffc0
ffc0
e000
e000
e000
e000
e000
ff80
ff80
e000
e000
e000
e000
e000
e000
ffe0
ffe0
ENDCHAR
STARTCHAR Ecaron
ENCODING 204
SWIDTH 542 0
DWIDTH 13 0
BBX 11 21 2 0
BITMAP
7380
3f00
1e00
0000
ffc0
ffc0
e000
e000
e000
e000
e000
ff80
ff80
e000
e000
e000
e000
e000
e000
ffe0
ffe0
ENDCHAR
STARTCHAR Iacute
ENCODING 205
SWIDTH 288 0
DWIDTH 7 0
BBX 5 21 2 0
BITMAP
38
60
c0
00
e0
e0
e0
e0
e0
e0
e0
e0
e0
e0
e0
e0
e0
e0
e0
e0
e0
ENDCHAR
STARTCHAR Icircumflex
ENCODING 206
SWIDTH 288 0
DWIDTH 7 0
BBX 8 21 4 0
BITMAP
3c
7e
e7
00
38
38
38
38
38
38
38
38
38
38
38
38
38
38
38
38
38
ENDCHAR
STARTCHAR Dcaron
ENCODING 207
SWIDTH 749 0
DWIDTH 18 0
BBX 15 21 2 0
BITMAP
1ce0
0fc0
0780
0000
ffc0
fff0
e078
e03c
e01c
e00e
e00e
e00e
e00e
e00e
e00e
e00e
e01c
e01c
e078
fff0
ff80
ENDCHAR
STARTCHAR Dstroke
ENCODING 208
SWIDTH 749 0
DWIDTH 18 0
BBX 18 17 0 0
BITMAP
1ff800
1ffe00
1c0f00
1c0780
1c0380
1c01c0
1c01c0
ffc1c0
ffc1c0
1c01c0
1c01c0
1c01c0
1c0380
1c0380
1c0f00
1ffe00
1ff000
ENDCHAR
STARTCHAR Nacute
ENCODING 209
SWIDTH 741 0
DWIDTH 18 0
BBX 13 21 2 0
BITMAP
00e0
0180
0300
0000
e018
f018
f018
f818
fc18
dc18
de18
cf18
c718
c798
c3d8
c1d8
c1f8
c0f8
c078
c078
c038
ENDCHAR
STARTCHAR Ncaron
ENCODING 210
SWIDTH 741 0
DWIDTH 18 0
BBX 13 21 2 0
BITMAP
1ce0
0fc0
0780
0000
e018
f018
f018
f818
fc18
dc18
de18
cf18
c718
c798
c3d8
c1d8
c1f8
c0f8
c078
c078
c038
ENDCHAR
STARTCHAR Oacute
ENCODING 211
SWIDTH 777 0
DWIDTH 19 0
BBX 16 21 1 0
BITMAP
00e0
0180
0300
0000
07e0
1ff8
3c3c
781e
700e
e007
e007
e007
e007
e007
e007
e007
700e
781e
3c3c
1ff8
07e0
ENDCHAR
STARTCHAR Ocircumflex
ENCODING 212
SWIDTH 777 0
DWIDTH 19 0
BBX 16 21 1 0
BITMAP
03c0
07e0
0e70
0000
07e0
1ff8
3c3c
781e
700e
e007
e007
e007
e007
e007
e007
e007
700e
781e
3c3c
1ff8
07e0
ENDCHAR
STARTCHAR Odoubleacute
ENCODING 213
SWIDTH 777 0
DWIDTH 19 0
BBX 16 21 1 0
BITMAP
01b0
0360
06c0
0000
07e0
1ff8
3c3c
781e
700e
e007
e007
e007
e007
e007
e007
e007
700e
781e
3c3c
1ff8
07e0
ENDCHAR
STARTCHAR Odiaeresis
ENCODING 214
SWIDTH 777 0
DWIDTH 19 0
BBX 16 20 1 0
BITMAP
0630
0630
0000
07e0
1ff8
3c3c
781e
700e
e007
e007
e007
e007
e007
e007
e007
700e
781e
3c3c
1ff8
07e0
ENDCHAR
STARTCHAR multiply
ENCODING 215
SWIDTH 633 0
DWIDTH 15 0
BBX 14 14 1 0
BITMAP
4008
e01c
7038
3870
1ce0
0fc0
0780
0780
0fc0
1ce0
3870
7038
e01c
4008
ENDCHAR
STARTCHAR Rcaron
ENCODING 216
SWIDTH 633 0
DWIDTH 15 0
BBX 13 21 3 0
BITMAP
7380
3f00
1e00
0000
ff00
ff80
e3c0
e1c0
e1c0
e1c0
e380
e780
fe00
fe00
e700
e780
e380
e3c0
e1e0
e0f0
e0f8
ENDCHAR
STARTCHAR Uring
ENCODING 217
SWIDTH 693 0
DWIDTH 17 0
BBX 12 22 2 0
BITMAP
0600
0900
0900
0600
0000
e030
e030
e030
e030
e030
e030
e030
e030
e030
e030
e030
e030
e030
f070
7060
7fe0
1f80
ENDCHAR
STARTCHAR Uacute
ENCODING 218
SWIDTH 693 0
DWIDTH 17 0
BBX 12 21 2 0
BITMAP
0380
0600
0c00
0000
e030
e030
e030
e030
e030
e030
e030
e030
e030
e030
e030
e030
e030
f070
7060
7fe0
1f80
ENDCHAR
STARTCHAR Udoubleacute
ENCODING 219
SWIDTH 693 0
DWIDTH 17 0
BBX 12 21 2 0
BITMAP
06c0
0d80
1b00
0000
e030
e030
e030
e030
e030
e030
e030
e030
e030
e030
e030
e030
e030
f070
7060
7fe0
1f80
ENDCHAR
STARTCHAR Udiaeresis
ENCODING 220
SWIDTH 693 0
DWIDTH 17 0
BBX 12 20 2 0
BITMAP
3180
3180
0000
e030
e030
e030
e030
e030
e030
e030
e030
e030
e030
e030
e030
e030
f070
7060
7fe0
1f80
ENDCHAR
STARTCHAR Yacute
ENCODING 221
SWIDTH 623 0
DWIDTH 15 0
BBX 15 21 0 0
BITMAP
00e0
0180
0300
0000
e00e
700c
7818
3838
3c30
1e70
0e60
0fc0
07c0
0780
0380
0380
0380
0380
0380
0380
0380
ENDCHAR
STARTCHAR Tcedilla
ENCODING 222
SWIDTH 633 0
DWIDTH 15 0
BBX 15 23 0 -6
BITMAP
fffe
fffe
0380
0380
0380
0380
0380
0380
0380
0380
0380
0380
0380
0380
0380
0380
0380
0180
0100
01c0
00c0
00c0
0380
ENDCHAR
STARTCHAR ssharp
ENCODING 223
SWIDTH 598 0
DWIDTH 14 0
BBX 12 19 2 0
BITMAP
3e00
7f00
f380
e380
e380
e300
e300
e600
e600
e700
e7c0
e3e0
e1e0
e070
e030
e030
e470
e7e0
e7c0
ENDCHAR
STARTCHAR racute
ENCODING 224
SWIDTH 409 0
DWIDTH 10 0
BBX 8 17 2 0
BITMAP
07
0c
18
00
e7
ef
f8
f0
e0
e0
e0
e0
e0
e0
e0
e0
e0
ENDCHAR
STARTCHAR aacute
ENCODING 225
SWIDTH 552 0
DWIDTH 13 0
BBX 12 17 1 0
BITMAP
0380
0600
0c00
0000
1f80
7fc0
41c0
01c0
01c0
1fc0
7fc0
f1c0
e1c0
e1c0
e3c0
7ef0
3c70
ENDCHAR
STARTCHAR acircumflex
ENCODING 226
SWIDTH 552 0
DWIDTH 13 0
BBX 12 17 1 0
BITMAP
0f00
1f80
39c0
0000
1f80
7fc0
41c0
01c0
01c0
1fc0
7fc0
f1c0
e1c0
e1c0
e3c0
7ef0
3c70
ENDCHAR
STARTCHAR abreve
ENCODING 227
SWIDTH 552 0
DWIDTH 13 0
BBX 12 17 1 0
BITMAP
30c0
1f80
0f00
0000
1f80
7fc0
41c0
01c0
01c0
1fc0
7fc0
f1c0
e1c0
e1c0
e3c0
7ef0
3c70
ENDCHAR
STARTCHAR adiaeresis
ENCODING 228
SWIDTH 552 0
DWIDTH 13 0
BBX 12 16 1 0
BITMAP
3180
3180
0000
1f80
7fc0
41c0
01c0
01c0
1fc0
7fc0
f1c0
e1c0
e1c0
e3c0
7ef0
3c70
ENDCHAR
STARTCHAR lacute
ENCODING 229
SWIDTH 289 0
DWIDTH 7 0
BBX 6 21 2 0
BITMAP
1c
30
60
00
e0
e0
e0
e0
e0
e0
e0
e0
e0
e0
e0
e0
e0
e0
e0
e0
e0
ENDCHAR
STARTCHAR cacute
ENCODING 230
SWIDTH 518 0
DWIDTH 12 0
BBX 10 17 1 0
BITMAP
01c0
0300
0600
0000
0fc0
3fc0
7840
7000
e000
e000
e000
e000
e000
7000
7840
3fc0
0f80
ENDCHAR
STARTCHAR ccedilla
ENCODING 231
SWIDTH 518 0
DWIDTH 12 0
BBX 10 18 1 -5
BITMAP
0fc0
3fc0
7840
7000
e000
e000
e000
e000
e000
7000
7840
3fc0
0f80
0800
0e00
0600
0600
1c00
ENDCHAR
STARTCHAR ccaron
ENCODING 232
SWIDTH 518 0
DWIDTH 12 0
BBX 10 17 1 0
BITMAP
39c0
1f80
0f00
0000
0fc0
3fc0
7840
7000
e000
e000
e000
e000
e000
7000
7840
3fc0
0f80
ENDCHAR
STARTCHAR eacute
ENCODING 233
SWIDTH 557 0
DWIDTH 13 0
BBX 11 17 1 0
BITMAP
0380
0600
0c00
0000
1f00
3f80
71c0
60e0
e0e0
ffe0
ffe0
e000
e000
7000
7820
3fe0
0fc0
ENDCHAR
STARTCHAR eogonek
ENCODING 234
SWIDTH 557 0
DWIDTH 13 0
BBX 11 16 1 -3
BITMAP
1f00
3f80
71c0
60e0
e0e0
ffe0
ffe0
e000
e000
7000
7820
3fe0
0fc0
0600
0c00
0f00
ENDCHAR
STARTCHAR ediaeresis
ENCODING 235
SWIDTH 557 0
DWIDTH 13 0
BBX 11 16 1 0
BITMAP
3180
3180
0000
1f00
3f80
71c0
60e0
e0e0
ffe0
ffe0
e000
e000
7000
7820
3fe0
0fc0
ENDCHAR
STARTCHAR ecaron
ENCODING 236
SWIDTH 557 0
DWIDTH 13 0
BBX 11 17 1 0
BITMAP
39c0
1f80
0f00
0000
1f00
3f80
71c0
60e0
e0e0
ffe0
ffe0
e000
e000
7000
7820
3fe0
0fc0
ENDCHAR
STARTCHAR iacute
ENCODING 237
SWIDTH 289 0
DWIDTH 7 0
BBX 5 17 2 0
BITMAP
38
60
c0
00
e0
e0
e0
e0
e0
e0
e0
e0
e0
e0
e0
e0
e0
ENDCHAR
STARTCHAR icircumflex
ENCODING 238
SWIDTH 289 0
DWIDTH 7 0
BBX 8 17 4 0
BITMAP
3c
7e
e7
00
38
38
38
38
38
38
38
38
38
38
38
38
38
ENDCHAR
STARTCHAR dcaron
ENCODING 239
SWIDTH 791 0
DWIDTH 19 0
BBX 16 19 1 0
BITMAP
0007
0007
0077
0073
0073
0076
1e70
3ff0
78f0
7070
e070
e070
e070
e070
e070
f070
71f0
7f70
1e70
ENDCHAR
STARTCHAR dstroke
ENCODING 240
SWIDTH 750 0
DWIDTH 18 0
BBX 15 17 1 0
BITMAP
0070
03fe
0070
0070
1e70
3ff0
78f0
7070
e070
e070
e070
e070
e070
f070
71f0
7f70
1e70
ENDCHAR
STARTCHAR nacute
ENCODING 241
SWIDTH 620 0
DWIDTH 15 0
BBX 10 17 3 0
BITMAP
0380
0600
0c00
0000
e700
ef80
f1c0
f1c0
e1c0
e1c0
e1c0
e1c0
e1c0
e1c0
e1c0
e1c0
e1c0
ENDCHAR
STARTCHAR ncaron
ENCODING 242
SWIDTH 620 0
DWIDTH 15 0
BBX 10 17 3 0
BITMAP
7380
3f00
1e00
0000
e700
ef80
f1c0
f1c0
e1c0
e1c0
e1c0
e1c0
e1c0
e1c0
e1c0
e1c0
e1c0
ENDCHAR
STARTCHAR oacute
ENCODING 243
SWIDTH 614 0
DWIDTH 15 0
BBX 12 17 1 0
BITMAP
0380
0600
0c00
0000
1f80
3fc0
79e0
70e0
e070
e070
e070
e070
e070
70e0
79e0
3fc0
1f80
ENDCHAR
STARTCHAR ocircumflex
ENCODING 244
SWIDTH 614 0
DWIDTH 15 0
BBX 12 17 1 0
BITMAP
0f00
1f80
39c0
0000
1f80
3fc0
79e0
70e0
e070
e070
e070
e070
e070
70e0
79e0
3fc0
1f80
ENDCHAR
STARTCHAR odoubleacute
ENCODING 245
SWIDTH 614 0
DWIDTH 15 0
BBX 12 17 1 0
BITMAP
06c0
0d80
1b00
0000
1f80
3fc0
79e0
70e0
e070
e070
e070
e070
e070
70e0
79e0
3fc0
1f80
ENDCHAR
STARTCHAR odiaeresis
ENCODING 246
SWIDTH 614 0
DWIDTH 15 0
BBX 12 16 1 0
BITMAP
18c0
18c0
0000
1f80
3fc0
79e0
70e0
e070
e070
e070
e070
e070
70e0
79e0
3fc0
1f80
ENDCHAR
STARTCHAR division
ENCODING 247
SWIDTH 633 0
DWIDTH 15 0
BBX 15 13 0 0
BITMAP
0380
0380
0380
0000
0000
fffe
fffe
0000
0000
0000
0380
0380
0380
ENDCHAR
STARTCHAR rcaron
ENCODING 248
SWIDTH 409 0
DWIDTH 10 0
BBX 8 17 2 0
BITMAP
e7
7e
3c
00
e7
ef
f8
f0
e0
e0
e0
e0
e0
e0
e0
e0
e0
ENDCHAR
STARTCHAR uring
ENCODING 249
SWIDTH 620 0
DWIDTH 15 0
BBX 10 18 2 0
BITMAP
0c00
1200
1200
0c00
0000
e1c0
e1c0
e1c0
e1c0
e1c0
e1c0
e1c0
e1c0
e1c0
e3c0
e3c0
7dc0
39c0
ENDCHAR
STARTCHAR uacute
ENCODING 250
SWIDTH 620 0
DWIDTH 15 0
BBX 10 17 2 0
BITMAP
0700
0c00
1800
0000
e1c0
e1c0
e1c0
e1c0
e1c0
e1c0
e1c0
e1c0
e1c0
e3c0
e3c0
7dc0
39c0
ENDCHAR
STARTCHAR udoubleacute
ENCODING 251
SWIDTH 620 0
DWIDTH 15 0
BBX 10 17 2 0
BITMAP
0d80
1b00
3600
0000
e1c0
e1c0
e1c0
e1c0
e1c0
e1c0
e1c0
e1c0
e1c0
e3c0
e3c0
7dc0
39c0
ENDCHAR
STARTCHAR udiaeresis
ENCODING 252
SWIDTH 620 0
DWIDTH 15 0
BBX 10 16 2 0
BITMAP
3180
3180
0000
e1c0
e1c0
e1c0
e1c0
e1c0
e1c0
e1c0
e1c0
e1c0
e3c0
e3c0
7dc0
39c0
ENDCHAR
STARTCHAR yacute
ENCODING 253
SWIDTH 568 0
DWIDTH 13 0
BBX 12 22 0 -5
BITMAP
0380
0600
0c00
0000
e030
e060
7060
7060
70c0
38c0
39c0
3d80
1d80
1f00
1f00
0f00
0e00
0600
0e00
0c00
1c00
1800
ENDCHAR
STARTCHAR tcedilla
ENCODING 254
SWIDTH 374 0
DWIDTH 9 0
BBX 8 21 0 -6
BITMAP
38
38
ff
ff
38
38
38
38
38
38
38
38
38
1f
0f
18
10
1c
0c
0c
38
ENDCHAR
STARTCHAR abovedot
ENCODING 255
SWIDTH 614 0
DWIDTH 15 0
BBX 2 3 6 14
BITMAP
c0
c0
c0
ENDCHAR
ENDFONT
